# xmcd
#
# Track frame offsets:
#	150
#	2727
#	17203
#	31250
#	44852
#	62308
#	79229
#	96081
#	109793
#	124017
#	139021
#
# Disc length: 2047 seconds
#
# Revision: 1
# Processed by: cddbd v1.5.2PL0 Copyright (c) Steve Scherf et al.
# Submitted via: EasyCDDAExtractor 16.0.9.1
#
DISCID=8a07fd0b
DTITLE=Sweet California - Head for the Stars CD2
DYEAR=1900
DGENRE=
TTITLE0=You´re the One (Intro)
TTITLE1=Good Lovin´
TTITLE2=Wonder Woman
TTITLE3=The Time is Up
TTITLE4=Kids Again
TTITLE5=Just One
TTITLE6=Down With Ya
TTITLE7=90´s Child
TTITLE8=Hide and Seek
TTITLE9=Love on the Run
TTITLE10=título de pista 11
EXTD=
EXTT0=
EXTT1=
EXTT2=
EXTT3=
EXTT4=
EXTT5=
EXTT6=
EXTT7=
EXTT8=
EXTT9=
EXTT10=
PLAYORDER=
